<svg width="12" height="17" viewBox="0 0 12 17" fill="none" xmlns="http://www.w3.org/2000/svg">
<path d="M8.85902 10.9286C8.85474 10.4163 8.7181 9.91378 8.46237 9.46986C8.37229 9.31349 8.26851 9.16627 8.15259 9.02975C7.79777 8.61189 7.62002 8.01268 7.89398 7.53787L11.59 1.1322C11.7573 0.842152 11.658 0.471361 11.3681 0.30378C11.0779 0.136036 10.7067 0.235422 10.5391 0.525718L6.60946 7.3332C6.39095 7.71173 5.95086 7.88949 5.5138 7.88622C5.18385 7.88374 4.85397 7.92847 4.53436 8.02009C3.97826 8.17951 3.471 8.47581 3.05899 8.88189C0.785844 11.0743 0.961916 16.1998 0.970416 16.4171C0.976692 16.5739 1.04342 16.7222 1.15661 16.8308C1.2698 16.9395 1.42066 17.0001 1.57756 17H10.6792C10.8067 17 10.9309 16.9599 11.0342 16.8854C11.1376 16.8109 11.2149 16.7057 11.2552 16.5849C11.2955 16.464 11.2968 16.3335 11.2588 16.2118C11.2208 16.0902 11.1455 15.9836 11.0435 15.9071C8.89424 14.2946 8.85902 10.9614 8.85902 10.9286ZM5.77899 9.10532C6.26493 9.11066 6.7301 9.30315 7.07772 9.64275C7.42535 9.98234 7.62865 10.4429 7.64534 10.9286C7.64534 11.0586 7.51413 11.1504 7.39529 11.0975L4.90911 9.9918C4.52503 9.82098 4.47214 9.31298 4.87456 9.1915C5.16734 9.10311 5.47478 9.07382 5.77899 9.10532ZM8.14536 15.7857C7.99873 15.7857 7.85646 15.7283 7.76157 15.6165C7.48364 15.289 7.27615 14.9091 7.15067 14.5006C7.05855 14.2007 6.80033 13.9643 6.48663 13.9643C6.12674 13.9643 5.83767 14.2711 5.92173 14.621C5.94575 14.7211 5.97367 14.8201 6.00541 14.9178C6.13451 15.3155 5.86774 15.7857 5.44961 15.7857C5.21735 15.7857 5.01045 15.6356 4.9489 15.4117C4.81522 14.9253 4.71823 14.4296 4.65871 13.9288C4.62063 13.6085 4.35572 13.3571 4.03312 13.3571C3.68458 13.3571 3.40508 13.6488 3.44277 13.9953C3.4756 14.297 3.52145 14.5971 3.58018 14.8948C3.66903 15.345 3.33846 15.7857 2.87955 15.7857C2.49437 15.7857 2.1828 15.4706 2.2047 15.086C2.26242 14.0729 2.43017 12.6323 2.89229 11.4138C3.07462 10.9331 3.63133 10.752 4.10114 10.961L7.37001 12.4147C7.66882 12.5475 7.87957 12.8193 7.96246 13.1357C8.12133 13.742 8.35156 14.3266 8.64788 14.8775C8.85949 15.2709 8.59206 15.7857 8.14536 15.7857Z" fill="white"/>
</svg>
