<svg width="12" height="17" viewBox="0 0 12 17" fill="none" xmlns="http://www.w3.org/2000/svg">
<path d="M3.40609 9.24178L3.40611 9.2418L3.40997 9.238C3.76245 8.8906 4.1964 8.63711 4.67214 8.50073C4.94556 8.42235 5.22777 8.38409 5.51005 8.3862C6.06491 8.39036 6.70671 8.16486 7.04249 7.58317L10.9721 0.775685C11.0016 0.724646 11.0669 0.707171 11.1179 0.736664C11.1688 0.766128 11.1863 0.831321 11.1569 0.882318L7.4609 7.28799C7.03831 8.02041 7.34568 8.85195 7.77146 9.35338C7.86788 9.46693 7.95419 9.58939 8.02912 9.71945C8.24183 10.0887 8.35548 10.5066 8.35904 10.9327C8.35965 11.0116 8.37643 11.8843 8.66222 12.9544C8.9526 14.0418 9.53975 15.404 10.7434 16.3071L10.7435 16.3071C10.7615 16.3206 10.7748 16.3394 10.7815 16.3609C10.7882 16.3824 10.788 16.4054 10.7809 16.4267C10.7738 16.4481 10.7601 16.4666 10.7419 16.4798C10.7236 16.4929 10.7017 16.5 10.6792 16.5H1.57756H1.57716C1.54947 16.5 1.52285 16.4893 1.50287 16.4701C1.4829 16.451 1.47112 16.4248 1.47002 16.3971L0.970416 16.4171L1.47003 16.3976C1.46635 16.3034 1.42113 15.003 1.65348 13.4648C1.88973 11.9008 2.39568 10.2163 3.40609 9.24178ZM8.14534 10.9286H7.64534L8.14505 10.9114C8.12394 10.2971 7.8668 9.71461 7.42712 9.28509C6.993 8.861 6.41394 8.61829 5.80777 8.60572C5.44505 8.57114 5.079 8.60749 4.73005 8.71284C4.29766 8.84337 4.07213 9.21927 4.09801 9.60649C4.12193 9.96441 4.35305 10.2917 4.70592 10.4487L7.1921 11.5544C7.66776 11.7659 8.14534 11.3915 8.14534 10.9286ZM6.67271 14.6474C6.81806 15.1206 7.0584 15.5607 7.38037 15.94C7.58255 16.1782 7.87205 16.2857 8.14536 16.2857C9.02505 16.2857 9.45241 15.3177 9.08821 14.6406C8.81063 14.1246 8.59495 13.5769 8.44613 13.0089C8.32936 12.5633 8.02663 12.1595 7.57318 11.9578L4.30431 10.5041C3.61772 10.1988 2.7258 10.4428 2.42478 11.2365C1.93556 12.5265 1.76421 14.0273 1.70551 15.0576C1.66648 15.7427 2.22097 16.2857 2.87955 16.2857C3.68358 16.2857 4.21457 15.527 4.07073 14.798C4.01478 14.5145 3.97111 14.2286 3.93984 13.9412C3.93765 13.9211 3.94314 13.904 3.95824 13.8879C3.97456 13.8704 4.00033 13.8571 4.03312 13.8571C4.08495 13.8571 4.15192 13.9013 4.1622 13.9878C4.22467 14.5134 4.32647 15.0336 4.46678 15.5442C4.59101 15.9962 5.00387 16.2857 5.44961 16.2857C5.86291 16.2857 6.1821 16.05 6.35868 15.7627C6.53256 15.4799 6.59397 15.1115 6.48098 14.7634C6.45326 14.6781 6.42888 14.5916 6.4079 14.5043C6.40738 14.5021 6.40717 14.5006 6.4071 14.4998C6.40763 14.4987 6.40897 14.4964 6.41189 14.4931C6.42299 14.4805 6.44862 14.4643 6.48663 14.4643C6.51312 14.4643 6.54492 14.4733 6.58063 14.5032C6.61839 14.5349 6.65363 14.5853 6.67271 14.6474Z" fill="white" stroke="black"/>
</svg>
