<svg width="24" height="19" viewBox="0 0 24 19" fill="none" xmlns="http://www.w3.org/2000/svg">
<path d="M22.8103 3.63745L18.2387 1.01851H18.1832L18.1462 1H15.0923C14.9941 1 14.9 1.039 14.8306 1.10842C14.7611 1.17784 14.7221 1.27199 14.7221 1.37017C14.7221 2.05739 14.4491 2.71647 13.9632 3.20241C13.4773 3.68835 12.8182 3.96135 12.131 3.96135C11.4437 3.96135 10.7847 3.68835 10.2987 3.20241C9.81277 2.71647 9.53977 2.05739 9.53977 1.37017C9.53977 1.27199 9.50077 1.17784 9.43135 1.10842C9.36193 1.039 9.26778 1 9.1696 1H6.11571L6.07869 1.01851H6.02317L1.45159 3.63745C1.20612 3.77959 1.02375 4.00959 0.941296 4.28098C0.858846 4.55238 0.882465 4.84496 1.00738 5.09962L2.71016 8.50517C2.80258 8.68859 2.94407 8.84278 3.11887 8.95061C3.29368 9.05844 3.49497 9.11567 3.70036 9.11595H5.83809V16.8895C5.83809 17.184 5.95508 17.4665 6.16334 17.6747C6.3716 17.883 6.65407 18 6.94859 18H17.3133C17.6078 18 17.8903 17.883 18.0986 17.6747C18.3068 17.4665 18.4238 17.184 18.4238 16.8895V9.11595H20.5615C20.7669 9.11567 20.9682 9.05844 21.143 8.95061C21.3178 8.84278 21.4593 8.68859 21.5517 8.50517L23.2545 5.09962C23.3794 4.84496 23.4031 4.55238 23.3206 4.28098C23.2382 4.00959 23.0558 3.77959 22.8103 3.63745ZM3.70036 8.37561C3.63224 8.37776 3.56503 8.35954 3.50733 8.32327C3.44962 8.287 3.40406 8.23434 3.37646 8.17202L1.67369 4.76647C1.63035 4.6814 1.62157 4.58287 1.64916 4.49148C1.67675 4.40008 1.73859 4.32288 1.82175 4.27599L5.83809 1.98095V8.37561H3.70036ZM17.6835 16.8895C17.6835 16.9877 17.6445 17.0818 17.5751 17.1512C17.5056 17.2207 17.4115 17.2597 17.3133 17.2597H6.94859C6.85042 17.2597 6.75626 17.2207 6.68684 17.1512C6.61742 17.0818 6.57842 16.9877 6.57842 16.8895V1.71257H8.81794C8.90456 2.53086 9.29094 3.28814 9.90265 3.83851C10.5144 4.38889 11.3081 4.69341 12.131 4.69341C12.9538 4.69341 13.7476 4.38889 14.3593 3.83851C14.971 3.28814 15.3573 2.53086 15.444 1.71257H17.6835V16.8895ZM22.5882 4.76647L20.8854 8.17202C20.8578 8.23434 20.8123 8.287 20.7546 8.32327C20.6969 8.35954 20.6297 8.37776 20.5615 8.37561H18.4238V1.98095L22.4402 4.27599C22.5233 4.32288 22.5852 4.40008 22.6128 4.49148C22.6403 4.58287 22.6316 4.6814 22.5882 4.76647Z" fill="#14171C" stroke="#14171C" stroke-width="0.5"/>
</svg>
