<svg width="13" height="17" viewBox="0 0 13 17" fill="none" xmlns="http://www.w3.org/2000/svg">
<path d="M5.83246 0.00111895C5.97455 0.00107158 6.11215 0.0508634 6.2213 0.141823C6.33045 0.232783 6.40424 0.359148 6.42981 0.498911L6.43953 0.608182V4.25056C6.43967 4.95029 6.19805 5.62858 5.75555 6.17064C5.31306 6.7127 4.69687 7.08522 4.01128 7.22517V16.3918C4.01155 16.5435 3.95503 16.6898 3.85282 16.8019C3.75062 16.914 3.61014 16.9838 3.45906 16.9975C3.30799 17.0112 3.15725 16.9679 3.03654 16.876C2.91583 16.7841 2.83389 16.6504 2.80686 16.5011L2.79715 16.3918V7.22517C2.14658 7.09211 1.55756 6.74947 1.1203 6.24972C0.683042 5.74996 0.421659 5.12065 0.376182 4.45818L0.368898 4.25056V0.608182C0.368618 0.456482 0.425147 0.310174 0.527351 0.198071C0.629556 0.0859669 0.770028 0.0161912 0.921108 0.00248438C1.07219 -0.0112225 1.22293 0.0321328 1.34364 0.124012C1.46435 0.215892 1.54628 0.349637 1.57331 0.498911L1.58302 0.608182V4.25056C1.58283 4.62733 1.69949 4.9949 1.91694 5.30259C2.13439 5.61028 2.44192 5.84296 2.79715 5.96855V0.608182C2.79687 0.456482 2.8534 0.310174 2.9556 0.198071C3.05781 0.0859669 3.19828 0.0161912 3.34936 0.00248438C3.50044 -0.0112225 3.65118 0.0321328 3.77189 0.124012C3.8926 0.215892 3.97454 0.349637 4.00156 0.498911L4.01128 0.608182V5.96733C4.66448 5.73665 5.14648 5.14416 5.2169 4.43146L5.2254 4.25056V0.608182C5.2254 0.447179 5.28936 0.29277 5.40321 0.178924C5.51705 0.0650773 5.67146 0.00111895 5.83246 0.00111895ZM11.9031 0.00111895C12.0452 0.00107158 12.1828 0.0508634 12.2919 0.141823C12.4011 0.232783 12.4749 0.359148 12.5004 0.498911L12.5102 0.608182V16.3918C12.5104 16.5435 12.4539 16.6898 12.3517 16.8019C12.2495 16.914 12.109 16.9838 11.9579 16.9975C11.8069 17.0112 11.6561 16.9679 11.5354 16.876C11.4147 16.7841 11.3328 16.6504 11.3057 16.5011L11.296 16.3918V9.71413H9.47484C9.33276 9.71417 9.19516 9.66438 9.08601 9.57342C8.97686 9.48246 8.90307 9.3561 8.87749 9.21633L8.86778 9.10706V3.03643C8.86778 2.23142 9.18757 1.45937 9.7568 0.890142C10.326 0.32091 11.0981 0.00111895 11.9031 0.00111895ZM11.296 8.5V1.31845C10.6428 1.54913 10.1608 2.14162 10.0904 2.85553L10.0819 3.03643V8.5H11.296V1.31845V8.5Z" fill="black"/>
</svg>
