<svg width="13" height="16" viewBox="0 0 13 16" fill="none" xmlns="http://www.w3.org/2000/svg">
<path d="M11.702 0.226098C11.8517 0.179376 12.0102 0.168499 12.1649 0.194346C12.3195 0.220193 12.4659 0.282039 12.5922 0.374891C12.7186 0.467744 12.8213 0.589 12.8921 0.728872C12.963 0.868745 12.9999 1.02331 13 1.1801V11.5001C13 12.0633 12.8099 12.6099 12.4604 13.0516C12.1109 13.4932 11.6225 13.8038 11.0744 13.9332C10.5263 14.0626 9.95054 14.0031 9.44044 13.7645C8.93035 13.5258 8.51579 13.1219 8.26394 12.6181C8.01208 12.1144 7.93767 11.5404 8.05278 10.9891C8.16788 10.4378 8.46576 9.94157 8.89813 9.58072C9.33051 9.21987 9.87206 9.01557 10.435 9.00094C10.998 8.98631 11.5495 9.16219 12 9.5001V4.1801L5 6.3681V13.5001C5 14.0633 4.80985 14.6099 4.46035 15.0516C4.11086 15.4932 3.62249 15.8038 3.07439 15.9332C2.52628 16.0626 1.95054 16.0031 1.44044 15.7645C0.930353 15.5258 0.515794 15.1219 0.263935 14.6181C0.012076 14.1144 -0.0623279 13.5404 0.0527782 12.9891C0.167884 12.4378 0.465757 11.9416 0.898134 11.5807C1.33051 11.2199 1.87206 11.0156 2.43505 11.0009C2.99803 10.9863 3.54946 11.1622 4 11.5001V3.3681C3.99991 3.15487 4.06798 2.94719 4.19427 2.77539C4.32056 2.60358 4.49846 2.47664 4.702 2.4131L11.702 0.226098V0.226098ZM5 5.3201L12 3.1331V1.1801L5 3.3681V5.3201ZM2.5 12.0001C2.10218 12.0001 1.72065 12.1581 1.43934 12.4394C1.15804 12.7207 1 13.1023 1 13.5001C1 13.8979 1.15804 14.2795 1.43934 14.5608C1.72065 14.8421 2.10218 15.0001 2.5 15.0001C2.89783 15.0001 3.27936 14.8421 3.56066 14.5608C3.84197 14.2795 4 13.8979 4 13.5001C4 13.1023 3.84197 12.7207 3.56066 12.4394C3.27936 12.1581 2.89783 12.0001 2.5 12.0001ZM9 11.5001C9 11.8979 9.15804 12.2795 9.43934 12.5608C9.72065 12.8421 10.1022 13.0001 10.5 13.0001C10.8978 13.0001 11.2794 12.8421 11.5607 12.5608C11.842 12.2795 12 11.8979 12 11.5001C12 11.1023 11.842 10.7207 11.5607 10.4394C11.2794 10.1581 10.8978 10.0001 10.5 10.0001C10.1022 10.0001 9.72065 10.1581 9.43934 10.4394C9.15804 10.7207 9 11.1023 9 11.5001V11.5001Z" fill="black"/>
</svg>
