<svg width="19" height="18" viewBox="0 0 19 18" fill="none" xmlns="http://www.w3.org/2000/svg">
<path d="M4.24785 7.96432C4.58735 7.01372 5.80126 6.74076 6.51502 7.45451L10.5455 11.485C11.2593 12.1988 10.9863 13.4127 10.0357 13.7522L3.76603 15.9914C2.67344 16.3816 1.61846 15.3266 2.00868 14.234L4.24785 7.96432Z" stroke="black" stroke-width="1.25"/>
<path d="M9.28242 7.01041L12.5823 3.71058C12.9728 3.32005 12.9728 2.68689 12.5823 2.29636L11.2859 1" stroke="#14171C" stroke-width="1.25" stroke-linecap="round"/>
<path d="M7.94678 5.67471L8.57532 5.04617C8.96584 4.65565 8.96584 4.02248 8.57532 3.63196L7.94678 3.00342" stroke="#14171C" stroke-width="1.25" stroke-linecap="round"/>
<path d="M11.9537 9.68179L13.9179 7.7176C14.3084 7.32708 14.9416 7.32708 15.3321 7.7176L16.9624 9.34788" stroke="#14171C" stroke-width="1.25" stroke-linecap="round"/>
<path d="M10.618 8.3461L15.9213 3.0428C16.3118 2.65228 16.945 2.65228 17.3355 3.0428L17.9641 3.67134" stroke="#14171C" stroke-width="1.25" stroke-linecap="round"/>
</svg>
