<svg width="25" height="24" viewBox="0 0 25 24" fill="none" xmlns="http://www.w3.org/2000/svg">
<path d="M19.25 6.17L19.25 6.34689L19.4168 6.40575C19.9536 6.59515 20.4184 6.94637 20.7471 7.411C21.0759 7.87564 21.2524 8.43081 21.2524 9C21.2524 9.56919 21.0759 10.1244 20.7471 10.589C20.4184 11.0536 19.9536 11.4049 19.4168 11.5942L19.25 11.6531L19.25 11.83L19.25 19C19.25 19.1989 19.171 19.3897 19.0303 19.5303C18.8897 19.671 18.6989 19.75 18.5 19.75C18.3011 19.75 18.1103 19.671 17.9697 19.5303C17.829 19.3897 17.75 19.1989 17.75 19L17.75 11.83L17.75 11.6531L17.5832 11.5942C17.0464 11.4049 16.5816 11.0536 16.2529 10.589C15.9241 10.1244 15.7475 9.56919 15.7475 9C15.7475 8.43081 15.9241 7.87564 16.2529 7.411C16.5816 6.94637 17.0464 6.59515 17.5832 6.40575L17.75 6.34689L17.75 6.17L17.75 5C17.75 4.80109 17.829 4.61032 17.9697 4.46967C18.1103 4.32902 18.3011 4.25 18.5 4.25C18.6989 4.25 18.8897 4.32902 19.0303 4.46967C19.171 4.61032 19.25 4.80109 19.25 5L19.25 6.17ZM13.25 12.17L13.25 12.3469L13.4168 12.4058C13.9536 12.5951 14.4184 12.9464 14.7471 13.411C15.0759 13.8756 15.2524 14.4308 15.2524 15C15.2524 15.5692 15.0759 16.1244 14.7471 16.589C14.4184 17.0536 13.9536 17.4049 13.4168 17.5942L13.25 17.6531L13.25 17.83L13.25 19C13.25 19.1989 13.171 19.3897 13.0303 19.5303C12.8897 19.671 12.6989 19.75 12.5 19.75C12.3011 19.75 12.1103 19.671 11.9697 19.5303C11.829 19.3897 11.75 19.1989 11.75 19L11.75 17.83L11.75 17.6531L11.5832 17.5942C11.0464 17.4049 10.5816 17.0536 10.2529 16.589C9.92409 16.1244 9.74754 15.5692 9.74754 15C9.74754 14.4308 9.92409 13.8756 10.2529 13.411C10.5816 12.9464 11.0464 12.5951 11.5832 12.4058L11.75 12.3469L11.75 12.17L11.75 5C11.75 4.80109 11.829 4.61032 11.9697 4.46967C12.1103 4.32902 12.3011 4.25 12.5 4.25C12.6989 4.25 12.8897 4.32902 13.0303 4.46967C13.171 4.61032 13.25 4.80109 13.25 5L13.25 12.17ZM7.24999 6.17L7.24999 6.34689L7.41681 6.40575C7.95356 6.59515 8.41836 6.94637 8.74712 7.411C9.07589 7.87564 9.25244 8.43081 9.25244 9C9.25244 9.56919 9.07589 10.1244 8.74712 10.589C8.41836 11.0536 7.95356 11.4049 7.4168 11.5942L7.24999 11.6531L7.24999 11.83L7.24999 19C7.24999 19.1989 7.17097 19.3897 7.03032 19.5303C6.88967 19.671 6.6989 19.75 6.49999 19.75C6.30108 19.75 6.11031 19.671 5.96966 19.5303C5.82901 19.3897 5.74999 19.1989 5.74999 19L5.74999 11.83L5.74999 11.6531L5.58318 11.5942C5.04642 11.4049 4.58163 11.0536 4.25286 10.589C3.92409 10.1244 3.74754 9.56919 3.74754 9C3.74754 8.43081 3.92409 7.87564 4.25286 7.411C4.58163 6.94636 5.04642 6.59514 5.58318 6.40575L5.74999 6.34689L5.74999 6.17L5.74999 5C5.74999 4.80109 5.82901 4.61032 5.96966 4.46967C6.11031 4.32902 6.30108 4.25 6.49999 4.25C6.6989 4.25 6.88967 4.32902 7.03032 4.46967C7.17097 4.61032 7.24999 4.80109 7.24999 5L7.24999 6.17ZM19.75 9C19.75 8.66848 19.6183 8.35054 19.3839 8.11612C19.1495 7.8817 18.8315 7.75 18.5 7.75C18.1685 7.75 17.8505 7.8817 17.6161 8.11612C17.3817 8.35054 17.25 8.66848 17.25 9C17.25 9.33152 17.3817 9.64946 17.6161 9.88388C17.8505 10.1183 18.1685 10.25 18.5 10.25C18.8315 10.25 19.1495 10.1183 19.3839 9.88388C19.6183 9.64946 19.75 9.33152 19.75 9ZM13.75 15C13.75 14.6685 13.6183 14.3505 13.3839 14.1161C13.1495 13.8817 12.8315 13.75 12.5 13.75C12.1685 13.75 11.8505 13.8817 11.6161 14.1161C11.3817 14.3505 11.25 14.6685 11.25 15C11.25 15.3315 11.3817 15.6495 11.6161 15.8839C11.8505 16.1183 12.1685 16.25 12.5 16.25C12.8315 16.25 13.1495 16.1183 13.3839 15.8839C13.6183 15.6495 13.75 15.3315 13.75 15ZM7.74999 9C7.74999 8.66848 7.6183 8.35054 7.38387 8.11612C7.14945 7.8817 6.83151 7.75 6.49999 7.75C6.16847 7.75 5.85053 7.8817 5.61611 8.11612C5.38169 8.35054 5.24999 8.66848 5.24999 9C5.24999 9.33152 5.38169 9.64946 5.61611 9.88388C5.85053 10.1183 6.16847 10.25 6.49999 10.25C6.83151 10.25 7.14945 10.1183 7.38387 9.88388C7.6183 9.64946 7.74999 9.33152 7.74999 9Z" fill="white" stroke="#AA332F" stroke-width="0.5"/>
</svg>
