<svg width="18" height="18" viewBox="0 0 18 18" fill="none" xmlns="http://www.w3.org/2000/svg">
<path fill-rule="evenodd" clip-rule="evenodd" d="M17.8045 3.66228L16.8034 3.43866L14.0976 5.98602L12.565 4.50816L15.204 1.88666L14.973 0.924106C14.4153 0.747456 13.832 0.653973 13.244 0.647007C12.6026 0.637668 11.966 0.753506 11.3739 0.987304C10.8022 1.23233 10.2854 1.57888 9.85158 2.00819C9.36864 2.44136 8.98616 2.96492 8.72846 3.54561C8.2323 4.70126 8.2323 5.99467 8.72846 7.15032C6.05254 9.64299 3.41116 12.1687 0.805022 14.7268C0.535474 15.061 0.407117 15.4779 0.44049 15.8972C0.466793 16.3481 0.680987 16.7708 1.03606 17.0724C1.19523 17.2365 1.38519 17.3726 1.59698 17.471C1.81519 17.5622 2.05008 17.6144 2.28754 17.6254C2.69315 17.6181 3.08207 17.4723 3.3837 17.2158C5.37066 15.4451 9.17771 11.8075 11.3405 9.67581C11.9271 9.91159 12.5573 10.0331 13.194 10.0319C13.8348 10.0314 14.4691 9.90933 15.0593 9.67282C15.6495 9.43631 16.1836 9.09019 16.6301 8.65492C17.5473 7.76925 18.0595 6.57741 18.0561 5.33703C18.071 4.76943 17.9859 4.20345 17.8045 3.66228V3.66228ZM2.60715 16.3541C2.55774 16.3957 2.49819 16.4249 2.43387 16.4392C2.37058 16.4496 2.30589 16.4496 2.24261 16.4392C2.17627 16.4296 2.11307 16.406 2.05778 16.3699C1.99845 16.337 1.94828 16.2912 1.91145 16.2362C1.73176 16.0625 1.56361 15.7319 1.73176 15.5459C3.49024 13.7752 7.11117 10.3139 9.37538 8.19795C9.50374 8.35837 9.64493 8.51151 9.79639 8.65492C9.94785 8.80441 10.1109 8.94296 10.2841 9.06935C8.09438 11.1962 4.52351 14.6162 2.60843 16.3541H2.60715ZM16.8778 5.33703C16.8804 6.26676 16.4979 7.16004 15.8099 7.82605C15.1233 8.46374 14.2 8.82096 13.2383 8.82096C12.2765 8.82096 11.3532 8.46374 10.6666 7.82605C10.1635 7.32885 9.81974 6.70658 9.67545 6.03165C9.53116 5.35672 9.59224 4.65687 9.85158 4.01351C10.0242 3.57567 10.292 3.177 10.6376 2.84329C10.9831 2.50959 11.3988 2.24828 11.8578 2.07625C12.2936 1.90356 12.7614 1.81513 13.2338 1.81617H13.5598L11.2276 4.09251V4.93839L13.6599 7.23053H14.5071L16.8778 5.02347V5.33703V5.33703ZM3.0012 7.55503H4.96634L5.87125 8.42643L6.74151 7.60729L5.88794 6.78329V6.73103L5.9611 4.72692L5.67872 4.19582L2.00772 1.90854L1.24914 1.98875L0.182494 3.02058L0.0977783 3.74857L2.45697 7.29495L3.0012 7.55625V7.55503ZM1.78823 3.1409L4.7584 4.99308L4.70834 6.35792H3.32723L1.41215 3.48727L1.78823 3.1409V3.1409ZM10.908 11.5997L11.7731 10.7818L15.7598 14.6526C16.0956 14.9868 16.2829 15.4304 16.2829 15.8917C16.2829 16.353 16.0956 16.7966 15.7598 17.1307C15.5073 17.3762 15.1826 17.544 14.828 17.6123C14.4734 17.6805 14.1053 17.6462 13.7716 17.5136C13.5586 17.4241 13.3676 17.2938 13.2107 17.1307L9.17771 13.238L10.0493 12.414L14.0694 16.2958C14.1234 16.3523 14.1907 16.396 14.2658 16.4234C14.4135 16.4802 14.5788 16.4802 14.7266 16.4234C14.8016 16.3959 14.8689 16.3522 14.9229 16.2958C14.9791 16.2431 15.0229 16.1797 15.0513 16.1098C15.0807 16.0385 15.0964 15.9628 15.0975 15.8862C15.0962 15.8098 15.081 15.7341 15.0526 15.6626C15.0242 15.5927 14.9804 15.5294 14.9242 15.4767L10.908 11.5997Z" fill="black"/>
</svg>
