<svg width="23" height="24" viewBox="0 0 23 24" fill="none" xmlns="http://www.w3.org/2000/svg">
<g filter="url(#filter0_d_306_636)">
<path fill-rule="evenodd" clip-rule="evenodd" d="M18.6964 3.70293L17.8676 3.50743L15.6279 5.73443L14.3592 4.44243L16.5437 2.15061L16.3525 1.30911C15.8909 1.15468 15.408 1.07295 14.9213 1.06686C14.3903 1.0587 13.8634 1.15997 13.3732 1.36436C12.9 1.57857 12.4722 1.88155 12.1131 2.25686C11.7134 2.63555 11.3968 3.09327 11.1834 3.60093C10.7727 4.61124 10.7727 5.74199 11.1834 6.7523C8.96837 8.93148 6.78192 11.1395 4.62462 13.3759C4.4015 13.6681 4.29525 14.0326 4.32287 14.3991C4.34464 14.7934 4.52195 15.1629 4.81587 15.4266C4.94762 15.57 5.10487 15.689 5.28018 15.7751C5.46081 15.8547 5.65525 15.9004 5.85181 15.91C6.18756 15.9036 6.5095 15.7761 6.75918 15.5519C8.40393 14.0039 11.5553 10.8238 13.3456 8.96018C13.8312 9.1663 14.3529 9.27255 14.8799 9.27149C15.4104 9.27107 15.9354 9.16433 16.4239 8.95756C16.9124 8.7508 17.3546 8.44821 17.7242 8.06768C18.4834 7.29339 18.9074 6.25144 18.9046 5.16705C18.9169 4.67084 18.8465 4.17604 18.6964 3.70293ZM6.11637 14.7986C6.07548 14.8349 6.02618 14.8605 5.97293 14.873C5.92055 14.8821 5.867 14.8821 5.81462 14.873C5.7597 14.8646 5.70739 14.8439 5.66162 14.8124C5.61251 14.7837 5.57098 14.7436 5.5405 14.6956C5.39175 14.5436 5.25256 14.2546 5.39175 14.0921C6.84737 12.544 9.84468 9.51799 11.7189 7.66818C11.8252 7.80843 11.9421 7.9423 12.0674 8.06768C12.1928 8.19836 12.3277 8.31949 12.4712 8.42999C10.6586 10.2894 7.70268 13.2792 6.11743 14.7986H6.11637ZM17.9292 5.16705C17.9314 5.97986 17.6147 6.7608 17.0452 7.34305C16.4769 7.90054 15.7126 8.21284 14.9165 8.21284C14.1204 8.21284 13.3561 7.90054 12.7878 7.34305C12.3713 6.90838 12.0868 6.36437 11.9673 5.77432C11.8479 5.18427 11.8984 4.57243 12.1131 4.00999C12.256 3.62721 12.4777 3.27868 12.7637 2.98694C13.0498 2.6952 13.3939 2.46675 13.7738 2.31636C14.1345 2.16539 14.5218 2.08808 14.9128 2.08899H15.1827L13.2521 4.07905V4.81855L15.2656 6.82243H15.9668L17.9292 4.89293V5.16705ZM6.44256 7.10611H8.06925L8.81831 7.86793L9.53868 7.1518L8.83212 6.43143V6.38574L8.89268 4.63368L8.65893 4.16936L5.62018 2.16974L4.99225 2.23986L4.10931 3.14193L4.03918 3.77836L5.99206 6.87874L6.44256 7.10718V7.10611ZM5.4385 3.24711L7.89712 4.86636L7.85568 6.05955H6.71243L5.12718 3.54993L5.4385 3.24711ZM12.9876 10.6421L13.7037 9.92705L17.0038 13.3111C17.2818 13.6033 17.4368 13.9911 17.4368 14.3943C17.4368 14.7976 17.2818 15.1854 17.0038 15.4776C16.7948 15.6921 16.526 15.8388 16.2325 15.8985C15.9389 15.9582 15.6342 15.9281 15.358 15.8122C15.1817 15.734 15.0236 15.6201 14.8937 15.4776L11.5553 12.0744L12.2767 11.354L15.6045 14.7476C15.6492 14.797 15.7049 14.8352 15.7671 14.8592C15.8894 14.9088 16.0262 14.9088 16.1485 14.8592C16.2106 14.8351 16.2663 14.7969 16.3111 14.7476C16.3576 14.7015 16.3938 14.6461 16.4173 14.5851C16.4417 14.5227 16.4546 14.4565 16.4556 14.3896C16.4545 14.3227 16.4419 14.2566 16.4184 14.1941C16.3948 14.133 16.3586 14.0776 16.3121 14.0315L12.9876 10.6421Z" fill="black"/>
</g>
<defs>
<filter id="filter0_d_306_636" x="-1" y="0" width="25" height="25" filterUnits="userSpaceOnUse" color-interpolation-filters="sRGB">
<feFlood flood-opacity="0" result="BackgroundImageFix"/>
<feColorMatrix in="SourceAlpha" type="matrix" values="0 0 0 0 0 0 0 0 0 0 0 0 0 0 0 0 0 0 127 0" result="hardAlpha"/>
<feOffset dy="4"/>
<feGaussianBlur stdDeviation="2"/>
<feComposite in2="hardAlpha" operator="out"/>
<feColorMatrix type="matrix" values="0 0 0 0 0 0 0 0 0 0 0 0 0 0 0 0 0 0 0.25 0"/>
<feBlend mode="normal" in2="BackgroundImageFix" result="effect1_dropShadow_306_636"/>
<feBlend mode="normal" in="SourceGraphic" in2="effect1_dropShadow_306_636" result="shape"/>
</filter>
</defs>
</svg>
