<svg width="44" height="44" viewBox="0 0 44 44" fill="none" xmlns="http://www.w3.org/2000/svg">
<path fill-rule="evenodd" clip-rule="evenodd" d="M31.6572 0.16449C38.9112 0.16449 43.7852 5.25649 43.7852 12.8345V30.4945C43.7852 38.0725 38.9112 43.1645 31.6572 43.1645H12.9132C5.65916 43.1645 0.785156 38.0725 0.785156 30.4945V12.8345C0.785156 5.25649 5.65916 0.16449 12.9132 0.16449H31.6572ZM31.6572 3.16449H12.9132C7.36916 3.16449 3.78516 6.95849 3.78516 12.8345V30.4945C3.78516 36.3705 7.36916 40.1645 12.9132 40.1645H31.6572C37.2032 40.1645 40.7852 36.3705 40.7852 30.4945V12.8345C40.7852 6.95849 37.2032 3.16449 31.6572 3.16449ZM22.2852 12.8191C23.1132 12.8191 23.7852 13.4911 23.7852 14.3191V20.1445L29.6182 20.1449C30.4462 20.1449 31.1182 20.8169 31.1182 21.6449C31.1182 22.4729 30.4462 23.1449 29.6182 23.1449L23.7852 23.1445V28.9731C23.7852 29.8011 23.1132 30.4731 22.2852 30.4731C21.4572 30.4731 20.7852 29.8011 20.7852 28.9731V23.1445L14.9522 23.1449C14.1222 23.1449 13.4522 22.4729 13.4522 21.6449C13.4522 20.8169 14.1222 20.1449 14.9522 20.1449L20.7852 20.1445V14.3191C20.7852 13.4911 21.4572 12.8191 22.2852 12.8191Z" fill="rgb(65, 65, 65)"/>
</svg>
