<svg width="97" height="105" viewBox="0 0 97 105" fill="none" xmlns="http://www.w3.org/2000/svg">
<path d="M43.7325 4.27604C45.2395 3.43916 46.9348 3 48.6586 3C50.3823 3 52.0776 3.43916 53.5846 4.27604L91.7095 25.4515C92.4999 25.891 93.1585 26.5339 93.6169 27.3134C94.0754 28.093 94.3172 28.981 94.3171 29.8854V71.663C94.3167 73.4723 93.8325 75.2486 92.9146 76.8078C91.9967 78.3671 90.6786 79.6525 89.0968 80.5309L53.5846 100.266C52.0776 101.102 50.3823 101.542 48.6586 101.542C46.9348 101.542 45.2395 101.102 43.7325 100.266L8.22029 80.5309C6.63927 79.6529 5.32164 78.3683 4.40382 76.81C3.486 75.2518 3.00133 73.4765 3 71.6681V29.8854C2.99996 28.981 3.2417 28.093 3.70017 27.3134C4.15865 26.5339 4.81719 25.891 5.60761 25.4515L43.7376 4.27604H43.7325Z" stroke="#AA332F" stroke-width="5" stroke-linecap="square"/>
<path d="M25.8292 14.2195L71.4878 39.5853V57.3414M18.2195 53.9323L33.439 62.4146" stroke="#AA332F" stroke-width="5" stroke-linecap="round"/>
<path d="M3 26.9024L48.6586 52.2682M48.6586 52.2682L94.3171 26.9024M48.6586 52.2682V103" stroke="#AA332F" stroke-width="5"/>
</svg>
