<svg width="10" height="7" viewBox="0 0 10 7" fill="none" xmlns="http://www.w3.org/2000/svg">
<path fill-rule="evenodd" clip-rule="evenodd" d="M9.85 0.109922C9.93952 0.185641 9.99326 0.291542 9.99941 0.404344C10.0056 0.517147 9.9636 0.627616 9.88276 0.711467L3.80491 7L0.129805 3.71578C0.0472829 3.63683 0.000744794 3.53095 8.86235e-06 3.42049C-0.000727069 3.31003 0.0443964 3.20362 0.12586 3.12371C0.207324 3.04379 0.318759 2.99663 0.436657 2.99216C0.554555 2.98769 0.669697 3.02627 0.757795 3.09976L3.75668 5.77944L9.2079 0.140169C9.24802 0.0986672 9.29648 0.0649723 9.35051 0.0410109C9.40454 0.0170494 9.46309 0.00329133 9.52281 0.000521844C9.58252 -0.00224764 9.64223 0.00602613 9.69853 0.0248707C9.75483 0.0437152 9.80661 0.0727609 9.85091 0.110348L9.85 0.109922Z" fill="black"/>
</svg>
