<svg width="16" height="11" viewBox="0 0 16 11" fill="none" xmlns="http://www.w3.org/2000/svg">
<path fill-rule="evenodd" clip-rule="evenodd" d="M15.76 0.172735C15.9032 0.291721 15.9892 0.458137 15.9991 0.635398C16.0089 0.812659 15.9418 0.986254 15.8124 1.11802L6.08786 11L0.207688 5.83909C0.0756527 5.71502 0.00119167 5.54864 1.41798e-05 5.37506C-0.00116331 5.20148 0.0710343 5.03426 0.201377 4.90868C0.331719 4.78311 0.510014 4.70899 0.698651 4.70197C0.887287 4.69494 1.07152 4.75557 1.21247 4.87104L6.01068 9.08198L14.7326 0.220266C14.7968 0.155049 14.8744 0.102099 14.9608 0.0644456C15.0473 0.0267919 15.1409 0.00517208 15.2365 0.00082004C15.332 -0.003532 15.4276 0.00946963 15.5177 0.0390825C15.6077 0.0686953 15.6906 0.114339 15.7615 0.173404L15.76 0.172735Z" fill="#AA332F"/>
</svg>
