<svg width="20" height="21" viewBox="0 0 20 21" fill="none" xmlns="http://www.w3.org/2000/svg">
<path d="M2.22222 19.75C1.81164 19.75 1.47858 19.6127 1.18265 19.3175C0.887337 19.0216 0.75 18.6885 0.75 18.2778V2.72222C0.75 2.31159 0.887305 1.9785 1.18255 1.68255C1.4785 1.38731 1.81159 1.25 2.22222 1.25H6.66667C7.0773 1.25 7.41039 1.38731 7.70634 1.68255C8.00158 1.9785 8.13889 2.31159 8.13889 2.72222V18.2778C8.13889 18.6885 8.00155 19.0216 7.70624 19.3175C7.41031 19.6127 7.07725 19.75 6.66667 19.75H2.22222ZM12.2952 7.09456L12.2943 7.09366C11.9986 6.79841 11.8611 6.46595 11.8611 6.05556V2.72222C11.8611 2.3118 11.9986 1.97871 12.2948 1.68255C12.5899 1.3874 12.9225 1.25 13.3333 1.25H17.7778C18.1885 1.25 18.5216 1.38734 18.8175 1.68265C19.1127 1.97858 19.25 2.31164 19.25 2.72222V6.05556C19.25 6.46636 19.1126 6.79896 18.8174 7.09411C18.5213 7.39028 18.1882 7.52778 17.7778 7.52778H13.3333C12.9229 7.52778 12.5905 7.39032 12.2952 7.09456ZM13.3333 19.75C12.9225 19.75 12.5899 19.6126 12.2948 19.3174C11.9986 19.0213 11.8611 18.6882 11.8611 18.2778V12.7222C11.8611 12.3118 11.9986 11.9787 12.2948 11.6826C12.5899 11.3874 12.9225 11.25 13.3333 11.25H17.7778C18.1884 11.25 18.5215 11.3873 18.8174 11.6826C19.1127 11.9785 19.25 12.3116 19.25 12.7222V18.2778C19.25 18.6884 19.1127 19.0215 18.8174 19.3174C18.5215 19.6127 18.1884 19.75 17.7778 19.75H13.3333Z" stroke="#5E646B" stroke-width="1.5"/>
</svg>
