<svg width="1185" height="457" viewBox="0 0 1185 457" fill="none" xmlns="http://www.w3.org/2000/svg">
<path d="M182.227 41.7848H60.8355V109.001H150.378V144.341H60.8355V234.355H22.5601V144.341H0V109.001H22.5601V6.44434H182.227V41.7848Z" fill="#14171C"/>
<path d="M397.282 214.537L371.229 240.731L261.013 141.639V234.286H222.738V6.44434H331.068C365.502 6.44434 389.599 31.8756 389.599 68.3247C389.599 104.774 365.502 130.205 331.068 130.205H303.479L397.282 214.537ZM261.013 41.0225V99.5074H320.312C339.1 99.5074 352.092 87.3808 352.092 70.265C352.092 53.1491 339.1 41.0225 320.312 41.0225H261.013V41.0225Z" fill="#14171C"/>
<path d="M434.439 234.286V6.44434H472.715V234.286H434.439Z" fill="#14171C"/>
<path d="M567.216 199.015H703.066V234.355H528.941V6.44434H657.177V41.7848H567.216V101.378H680.505V135.541H567.216V198.946V199.015Z" fill="#14171C"/>
<path d="M889.483 6.44443H926.99V240.731H925.873L776.613 86.5494V234.286H739.106V0H740.223L889.483 154.181V6.44443Z" fill="#14171C"/>
<path d="M1185 120.365C1185 187.581 1136.04 234.286 1064.45 234.286H982.937V6.44434H1064.45C1136.04 6.44434 1185 53.1491 1185 120.365ZM1063.68 198.946C1112.29 198.946 1146.72 166.654 1146.72 120.365C1146.72 74.0762 1112.29 41.7848 1063.68 41.7848H1021.21V199.015H1063.68V198.946Z" fill="#14171C"/>
<path d="M547.519 282.308H576.086V452.219H547.519V361.858H462.168V452.219H433.601V282.308H462.168V335.526H547.519V282.308V282.308Z" fill="#14171C"/>
<path d="M607.447 367.194C607.447 317.371 647.678 277.457 697.897 277.457C748.116 277.457 788.068 317.371 788.068 367.194C788.068 417.017 748.116 456.931 697.897 456.931C647.678 456.931 607.447 417.017 607.447 367.194V367.194ZM759.85 367.194C759.85 332.339 732.191 304.343 697.897 304.343C663.603 304.343 635.665 332.408 635.665 367.194C635.665 401.98 663.323 430.044 697.897 430.044C732.471 430.044 759.85 401.98 759.85 367.194Z" fill="#14171C"/>
<path d="M813.841 367.194C813.841 317.371 854.072 277.457 904.291 277.457C954.51 277.457 994.461 317.371 994.461 367.194C994.461 417.017 954.51 456.931 904.291 456.931C854.072 456.931 813.841 417.017 813.841 367.194V367.194ZM966.244 367.194C966.244 332.339 938.585 304.343 904.291 304.343C869.996 304.343 842.058 332.408 842.058 367.194C842.058 401.98 869.717 430.044 904.291 430.044C938.864 430.044 966.244 401.98 966.244 367.194Z" fill="#14171C"/>
<path d="M1176.27 367.194C1176.27 417.294 1139.74 452.149 1086.38 452.149H1025.61V282.238H1086.38C1139.74 282.238 1176.27 317.094 1176.27 367.194ZM1085.82 425.817C1122.07 425.817 1147.77 401.772 1147.77 367.194C1147.77 332.616 1122.07 308.57 1085.82 308.57H1054.11V425.817H1085.82Z" fill="#14171C"/>
<path d="M157.083 381.469H172.728V440.577H93.8724V342.594H157.083V381.469V381.469ZM141.298 357.146H110.216V381.469H141.298V357.146ZM156.943 426.025V395.674H110.216V426.025H156.943Z" fill="#14171C"/>
<path d="M189.002 394.358C189.002 365.6 212.191 342.594 241.177 342.594C270.163 342.594 293.142 365.6 293.142 394.358C293.142 423.115 270.093 446.121 241.177 446.121C212.261 446.121 189.002 423.115 189.002 394.358V394.358ZM276.868 394.358C276.868 374.262 260.873 358.116 241.177 358.116C221.48 358.116 205.276 374.262 205.276 394.358C205.276 414.453 221.271 430.599 241.177 430.599C261.083 430.599 276.868 414.453 276.868 394.358Z" fill="#14171C"/>
<path d="M386.106 432.123L374.931 443.418L327.506 400.802V440.647H311.022V342.664H357.609C372.417 342.664 382.754 353.612 382.754 369.273C382.754 384.933 372.417 395.882 357.609 395.882H345.736L386.036 432.123H386.106ZM327.506 357.493V382.647H353C361.032 382.647 366.689 377.45 366.689 370.104C366.689 362.759 361.102 357.562 353 357.562H327.506V357.493Z" fill="#14171C"/>
<path d="M61.1848 231.722H22.2109V440.369H61.1848V231.722Z" fill="#14171C"/>
<path d="M253.447 297.121L176.104 220.389L162.424 233.961L239.766 310.694L253.447 297.121Z" fill="#AA332F"/>
<path d="M112.29 310.924L189.632 234.191L175.952 220.619L98.6097 297.351L112.29 310.924Z" fill="#AA332F"/>
<path d="M145.418 273.091V185.294H126.071V273.091H145.418Z" fill="#AA332F"/>
<path d="M239.85 310.857H378.004V291.662H239.85V310.857Z" fill="#AA332F"/>
</svg>
