<svg width="178" height="100" viewBox="0 0 178 100" fill="none" xmlns="http://www.w3.org/2000/svg">
<path d="M117.756 60.9358C103.729 60.9358 94.3168 47.2631 94.1399 47.0859C93.0747 45.4881 91.2986 43.7118 89.5236 43.7118C87.7474 43.8889 85.9726 46.1977 85.6172 47.0859C83.841 51.3477 81.3553 54.1878 78.5153 55.2544C76.2066 56.1425 73.3666 55.9641 70.7021 54.7218C68.2163 53.4783 66.9727 50.6382 67.8608 47.9741L70.1696 39.8055C71.4131 35.7219 74.4314 32.1709 78.3381 30.5719L87.3935 26.6655C91.2999 24.8893 94.8512 25.4219 98.7576 26.31L123.262 32.1696L133.204 55.2532L131.783 56.1413C126.811 59.5153 122.017 60.9358 117.756 60.9358H117.756ZM89.7008 39.6285C92.3638 39.6285 95.0281 41.4046 97.514 44.6003C98.0465 45.4884 110.831 63.9544 128.232 53.6557L120.419 35.1897L97.8681 29.8625C93.9617 29.1528 91.6528 28.7973 88.9899 30.0396L79.9345 34.1233C77.0932 35.3668 74.9627 37.8527 74.0749 40.871L71.7662 49.0396C71.5891 49.7493 71.9433 50.6374 72.6543 50.9928C74.2521 51.8809 75.8498 52.058 77.2706 51.5254C79.2239 50.8157 80.8216 48.6841 82.2424 45.4886V45.3115C82.5979 44.7789 85.0837 39.9842 89.5228 39.6288H89.7012L89.7008 39.6285Z" fill="#AA332F"/>
<path d="M119.354 73.3654L104.793 52.9462L111.363 55.6091C111.718 55.7863 121.662 59.6928 129.475 52.9462L131.605 51.17L138.53 67.3287L119.354 73.3654ZM115.271 60.7577L120.953 68.7478L132.85 65.0183L129.832 57.7379C124.682 61.1132 119.177 61.2914 115.271 60.7575L115.271 60.7577Z" fill="#AA332F"/>
<path d="M16.9001 80.2904L1.27413 74.075C0.208939 73.7195 -0.323656 72.4772 0.20894 71.412C0.564416 70.3468 1.80673 69.8143 2.87189 70.3468L14.5927 75.1414L37.6763 18.6761L1.27572 3.93708C0.210526 3.5816 -0.322071 2.33929 0.210525 1.27413C0.566001 0.208937 1.80831 -0.323655 2.87347 0.208941L43.0029 16.5448L16.9001 80.2904Z" fill="#AA332F"/>
<path d="M41.404 68.7488L22.404 61.2911C21.3388 60.9356 20.8062 59.6933 21.3388 58.6282C21.6943 57.563 22.9366 57.0304 24.0018 57.563L39.2723 63.5998L53.3004 30.9281L37.6745 24.3586C36.6093 24.0031 36.2538 22.7608 36.6093 21.6956C36.9648 20.6305 38.2071 20.2749 39.2723 20.6304L58.6276 28.7977L41.404 68.7488Z" fill="#AA332F"/>
<path d="M160.726 84.0192L134.625 20.2738L174.754 3.93795C175.819 3.58247 176.884 3.93795 177.417 5.00314C177.772 6.06833 177.417 7.13353 176.352 7.66609L139.951 22.4039L163.035 78.8691L174.931 74.0746C175.997 73.7191 177.062 74.2517 177.594 75.1398C177.95 76.205 177.417 77.2702 176.529 77.8027L160.726 84.0192Z" fill="#AA332F"/>
<path d="M136.223 72.4776L119 32.5258L138.532 24.3585C139.597 24.003 140.663 24.3585 141.195 25.4237C141.551 26.4889 141.195 27.5541 140.13 28.0866L124.327 34.6574L138.354 67.3291L153.624 61.2923C154.689 60.9368 155.755 61.4694 156.287 62.3575C156.643 63.4227 156.11 64.4879 155.222 65.0204L136.223 72.4776Z" fill="#AA332F"/>
<path d="M118.289 84.3743C116.335 84.3743 114.382 83.4862 112.961 82.0656L94.6724 62.5342C93.9627 61.6461 93.9627 60.4038 94.6724 59.6929C95.5605 58.9832 96.8028 58.9832 97.5137 59.6929L115.803 79.047C116.691 79.9351 117.756 80.2906 118.998 80.1122C120.242 79.9351 121.129 79.047 121.484 77.9818C121.84 77.0938 121.661 76.0286 120.952 75.3189L107.634 58.6276C106.925 57.7395 107.102 56.4972 107.99 55.7863C108.878 55.0766 110.12 55.2537 110.831 56.1417L124.148 72.833C125.569 74.6092 126.102 77.0949 125.214 79.2253C124.325 81.7112 122.372 83.4872 119.709 84.0199C119.354 84.197 118.821 84.3741 118.289 84.3741L118.289 84.3743Z" fill="#AA332F"/>
<path d="M109.233 90.9441C106.57 90.9441 103.906 89.8789 101.953 87.9257L86.5049 71.7671C85.7952 70.879 85.7952 69.6367 86.5049 68.9258C87.2147 68.2161 88.6353 68.2161 89.3462 68.9258L104.794 85.0844C106.215 86.6822 108.345 87.2148 110.477 86.8605C112.607 86.3279 114.028 84.9073 114.738 82.9541V82.777C115.094 81.7118 116.159 81.1792 117.224 81.5335C118.29 81.889 118.822 82.9541 118.468 84.0193V84.3748C117.403 87.7488 114.738 90.2344 111.366 90.9443C110.654 90.766 109.944 90.9443 109.233 90.9443V90.9441Z" fill="#AA332F"/>
<path d="M99.2893 96.8037H98.7567C96.2709 96.6266 93.7849 95.3831 91.8317 93.4297L79.0471 79.2243C78.3374 78.3362 78.3374 77.0939 79.2243 76.383C80.1123 75.6733 81.3547 75.6733 82.0656 76.5601L94.8502 90.7655C95.9154 92.0091 97.5131 92.7188 98.9338 92.8959C101.243 93.073 103.373 91.6524 105.149 88.8123C105.682 87.9242 106.925 87.5687 107.812 88.1025C108.7 88.6351 109.056 89.8787 108.522 90.7655C105.505 95.7373 101.954 96.8036 99.2895 96.8036L99.2893 96.8037Z" fill="#AA332F"/>
<path d="M81.3554 33.236H80.8228C69.8142 30.7502 56.1415 31.8154 55.9646 31.8154C54.8994 31.9925 53.8342 31.1056 53.8342 30.0392C53.6571 28.974 54.5439 27.9088 55.6103 27.9088C56.1429 27.9088 69.9927 26.6653 81.7122 29.3295C82.7774 29.5066 83.4883 30.5731 83.1328 31.8153C83.1304 32.7034 82.2435 33.236 81.3555 33.236L81.3554 33.236Z" fill="#AA332F"/>
<path d="M89.5235 100C87.7474 100 85.7941 99.2903 84.5517 98.0467L78.5149 92.3641C59.6935 73.7208 42.1143 61.4686 41.9368 61.4686C41.0487 60.7589 40.8716 59.5153 41.4042 58.6273C42.1139 57.7392 43.3575 57.5621 44.2455 58.0947C44.4226 58.2718 62.1791 70.7024 81.3563 89.3456L87.3931 95.0283C88.2812 95.9163 89.5235 96.0935 90.7672 95.738C91.2998 95.5609 92.5433 95.0283 92.8976 93.4293C93.0747 92.3641 93.9627 91.476 95.2063 91.6531C96.2715 91.8302 97.1595 92.7183 96.9824 93.7835V93.9606C96.6269 96.6236 94.852 98.577 92.1879 99.4648C91.1227 99.8227 90.2346 99.9999 89.5237 99.9999L89.5235 100Z" fill="#AA332F"/>
<path d="M76.2061 99.6449C74.0757 99.6449 71.767 98.7568 70.1693 97.3361L53.8334 82.7753C51.3476 80.4666 50.2825 77.0926 50.9921 73.7199L52.4128 67.8603C52.7683 66.7951 53.8334 66.0841 54.8986 66.4396C55.9638 66.7951 56.6747 67.8603 56.3193 68.9254L54.8986 74.785C54.366 76.7383 55.0757 78.6914 56.4964 79.9337L72.8322 94.4946C74.43 95.9152 76.5617 96.2707 78.5149 95.3827L83.4867 93.074C84.5519 92.5414 85.6171 93.074 86.1497 94.1391C86.6823 95.2043 86.1497 96.2695 85.0845 96.8021L80.1127 99.1108C78.8704 99.4675 77.6269 99.6446 76.2063 99.6446L76.2061 99.6449Z" fill="#AA332F"/>
</svg>
