<svg width="20" height="21" viewBox="0 0 20 21" fill="none" xmlns="http://www.w3.org/2000/svg">
<path d="M10.8333 5.5C10.8333 5.72101 10.7455 5.93298 10.5893 6.08926C10.433 6.24554 10.221 6.33333 10 6.33333C9.77899 6.33333 9.56702 6.24554 9.41074 6.08926C9.25446 5.93298 9.16667 5.72101 9.16667 5.5C9.16667 5.27899 9.25446 5.06702 9.41074 4.91074C9.56702 4.75446 9.77899 4.66667 10 4.66667C10.221 4.66667 10.433 4.75446 10.5893 4.91074C10.7455 5.06702 10.8333 5.27899 10.8333 5.5ZM9.375 8.625V14.875C9.375 15.0408 9.44085 15.1997 9.55806 15.3169C9.67527 15.4342 9.83424 15.5 10 15.5C10.1658 15.5 10.3247 15.4342 10.4419 15.3169C10.5592 15.1997 10.625 15.0408 10.625 14.875V8.625C10.625 8.45924 10.5592 8.30027 10.4419 8.18306C10.3247 8.06585 10.1658 8 10 8C9.83424 8 9.67527 8.06585 9.55806 8.18306C9.44085 8.30027 9.375 8.45924 9.375 8.625V8.625ZM0 10.5C0 4.9775 4.4775 0.5 10 0.5C15.5225 0.5 20 4.9775 20 10.5C20 16.0225 15.5225 20.5 10 20.5C4.4775 20.5 0 16.0225 0 10.5ZM10 1.75C5.1675 1.75 1.25 5.6675 1.25 10.5C1.25 15.3325 5.1675 19.25 10 19.25C14.8325 19.25 18.75 15.3325 18.75 10.5C18.75 5.6675 14.8325 1.75 10 1.75Z" fill="#5E646B"/>
</svg>
