<svg width="18" height="23" viewBox="0 0 18 23" fill="none" xmlns="http://www.w3.org/2000/svg">
<path d="M16.5556 11.5H8.77778M8.77778 11.5L12.1111 14.8333M8.77778 11.5L12.1111 8.16667M16.5556 4.83333V3.72222C16.5556 3.13285 16.3214 2.56762 15.9047 2.15087C15.4879 1.73413 14.9227 1.5 14.3333 1.5H3.22222C2.63285 1.5 2.06762 1.73413 1.65087 2.15087C1.23413 2.56762 1 3.13285 1 3.72222V19.2778C1 19.8671 1.23413 20.4324 1.65087 20.8491C2.06762 21.2659 2.63285 21.5 3.22222 21.5H14.3333C14.9227 21.5 15.4879 21.2659 15.9047 20.8491C16.3214 20.4324 16.5556 19.8671 16.5556 19.2778V18.1667" stroke="#5E646B" stroke-width="1.5" stroke-linecap="round" stroke-linejoin="round"/>
</svg>
