<svg width="28" height="26" viewBox="0 0 28 26" fill="none" xmlns="http://www.w3.org/2000/svg">
<path d="M18 17H10C9.46957 17 8.96086 16.7893 8.58579 16.4142C8.21071 16.0391 8 15.5304 8 15V13C8 12.4696 8.21071 11.9609 8.58579 11.5858C8.96086 11.2107 9.46957 11 10 11H18C18.5304 11 19.0391 11.2107 19.4142 11.5858C19.7893 11.9609 20 12.4696 20 13V15C20 15.5304 19.7893 16.0391 19.4142 16.4142C19.0391 16.7893 18.5304 17 18 17ZM10 13V15H18V13H10Z" fill="#5E646B"/>
<path d="M26 0H2C1.46957 0 0.960859 0.210714 0.585786 0.585786C0.210714 0.960859 0 1.46957 0 2V6C0 6.53043 0.210714 7.03914 0.585786 7.41421C0.960859 7.78929 1.46957 8 2 8V24C2 24.5304 2.21071 25.0391 2.58579 25.4142C2.96086 25.7893 3.46957 26 4 26H24C24.5304 26 25.0391 25.7893 25.4142 25.4142C25.7893 25.0391 26 24.5304 26 24V8C26.5304 8 27.0391 7.78929 27.4142 7.41421C27.7893 7.03914 28 6.53043 28 6V2C28 1.46957 27.7893 0.960859 27.4142 0.585786C27.0391 0.210714 26.5304 0 26 0V0ZM24 24H4V8H24V24ZM26 6H2V2H26V6Z" fill="#5E646B"/>
</svg>
