<svg width="100" height="100" viewBox="0 0 100 100" fill="none" xmlns="http://www.w3.org/2000/svg">
<path d="M94.0127 26.2171C85.5224 10.6301 68.9911 0 50.045 0C45.0856 0 40.3492 0.714066 35.836 2.05494C35.6128 2.0998 35.4333 2.14467 35.255 2.23314C20.6881 6.74442 8.93661 17.7755 3.44097 31.8896C3.35121 32.0242 3.26269 32.2024 3.21781 32.3806C3.17293 32.4703 3.17293 32.5588 3.12804 32.6486C1.11707 38.0531 0 43.9039 0 50.0227C0 68.7365 10.3664 85.0831 25.6028 93.6584C25.7375 93.7481 25.826 93.793 25.9606 93.8366C28.5975 95.3108 31.4113 96.5158 34.3163 97.4989C34.3612 97.4989 34.406 97.5438 34.4509 97.5438C39.3207 99.1514 44.5495 100 50.0002 100C77.569 100 100 77.5789 100 50.0222C100 41.4923 97.8556 33.4083 94.0569 26.3512C94.0569 26.3064 94.0569 26.2615 94.0133 26.2166L94.0127 26.2171ZM89.007 73.5151C86.9511 65.5208 81.9918 56.096 75.7369 51.1837C71.8945 48.1916 72.0279 44.5739 72.832 42.0728C74.53 36.5795 81.1877 30.684 90.7947 29.6121C93.8779 35.7297 95.6208 42.6521 95.6208 49.9771C95.5759 58.5971 93.1635 66.6361 89.0068 73.5148L89.007 73.5151ZM50.0438 95.4889C45.6652 95.4889 41.465 94.8634 37.4879 93.7019C38.4267 86.3782 42.269 79.6787 48.1674 75.0778C53.663 70.7898 56.1215 64.9837 54.7801 59.5804C53.2604 53.5066 47.2287 48.9953 38.695 47.4765C38.6052 47.4765 38.4718 47.4316 38.2487 47.4316C32.8418 46.8957 28.8197 45.1087 26.9434 42.4743C25.6031 40.5988 25.2902 38.1864 25.9609 35.1943C26.9433 30.9063 30.9204 28.7628 35.0759 26.4847C39.7225 23.9388 44.951 21.0802 45.8003 14.828C46.2916 11.0757 45.0411 7.68259 42.2707 5.13648C44.8178 4.69036 47.4099 4.46603 50.0452 4.46603C66.1303 4.46603 80.2956 12.8627 88.4276 25.5026C77.9252 27.3781 70.597 34.3005 68.5872 40.8219C66.934 46.1818 68.5423 51.2737 73.0105 54.7568C79.5344 59.8487 84.6273 71.1477 85.4329 78.6074C77.0759 88.8795 64.342 95.4893 50.0442 95.4893L50.0438 95.4889ZM4.51217 49.9775C4.51217 46.5381 4.91486 43.1434 5.62923 39.9283C6.96946 41.4025 8.62262 42.787 10.2322 44.082C13.4487 46.7176 16.7999 49.4865 16.3087 51.9429C13.7168 64.2702 18.0067 72.0412 21.4478 78.2497C23.4588 81.8224 25.1118 84.8595 25.2018 88.0759C12.7347 79.9472 4.51249 65.9227 4.51249 49.9784L4.51217 49.9775ZM29.4904 90.576C30.3843 85.1715 27.927 80.7499 25.3349 76.1056C22.0734 70.2101 18.3644 63.5553 20.6435 52.8805C21.7157 47.7437 17.1139 43.948 13.0472 40.6432C10.1423 38.2755 7.14908 35.8193 7.46186 33.8542C12.3763 20.9013 23.0558 10.7638 36.3271 6.56544C36.6837 6.69879 37.3096 6.96671 37.9791 7.41283C39.8105 8.57426 41.9111 10.7176 41.4199 14.2469C40.8838 18.3106 37.2198 20.2757 32.9746 22.5989C28.3717 25.1448 23.0994 28.0034 21.6693 34.2106C20.6869 38.4985 21.2229 42.1612 23.3673 45.1083C26.0477 48.8606 31.0521 51.2271 37.8442 51.8974H38.0224C44.7248 53.0588 49.4162 56.3637 50.4886 60.6516C51.4273 64.359 49.5947 68.333 45.4394 71.5494C38.8717 76.6862 34.4919 84.0996 33.1967 92.2283C31.9026 91.736 30.6958 91.2002 29.4903 90.5759L29.4904 90.576Z" fill="#AA332F"/>
</svg>
