<svg width="21" height="21" viewBox="0 0 21 21" fill="none" xmlns="http://www.w3.org/2000/svg">
<path d="M18.6121 11.0444V9.94844L19.9874 8.74503C20.241 8.52158 20.4073 8.2157 20.4571 7.88144C20.5069 7.54719 20.437 7.2061 20.2596 6.91843L18.5691 4.05318C18.4435 3.83561 18.2629 3.65489 18.0454 3.52917C17.8279 3.40344 17.5811 3.33712 17.3299 3.33686C17.1742 3.33567 17.0194 3.35987 16.8715 3.4085L15.1308 3.99587C14.8303 3.79617 14.5168 3.6167 14.1925 3.45864L13.8271 1.65353C13.7616 1.32374 13.5822 1.0275 13.3203 0.816661C13.0584 0.605822 12.7307 0.493821 12.3945 0.500263H9.04217C8.706 0.493821 8.37828 0.605822 8.11637 0.816661C7.85446 1.0275 7.67505 1.32374 7.60954 1.65353L7.24422 3.45864C6.91754 3.61666 6.60167 3.79613 6.29869 3.99587L4.59386 3.37984C4.44437 3.34089 4.28955 3.32638 4.13542 3.33686C3.88419 3.33712 3.63745 3.40344 3.41994 3.52917C3.20244 3.65489 3.02182 3.83561 2.8962 4.05318L1.2057 6.91843C1.0385 7.20567 0.976375 7.5421 1.02995 7.8701C1.08353 8.19811 1.24948 8.49728 1.49939 8.71638L2.85322 9.9556V11.0516L1.49939 12.255C1.24243 12.4756 1.07193 12.7801 1.01817 13.1145C0.964405 13.4489 1.03085 13.7915 1.2057 14.0816L2.8962 16.9468C3.02182 17.1644 3.20244 17.3451 3.41994 17.4708C3.63745 17.5966 3.88419 17.6629 4.13542 17.6631C4.29111 17.6643 4.44596 17.6401 4.59386 17.5915L6.33451 17.0041C6.63503 17.2038 6.94851 17.3833 7.27288 17.5414L7.6382 19.3465C7.7037 19.6763 7.88311 19.9725 8.14502 20.1833C8.40693 20.3942 8.73466 20.5062 9.07082 20.4997H12.4518C12.788 20.5062 13.1157 20.3942 13.3776 20.1833C13.6395 19.9725 13.8189 19.6763 13.8844 19.3465L14.2498 17.5414C14.5765 17.3833 14.8923 17.2039 15.1953 17.0041L16.9288 17.5915C17.0767 17.6401 17.2315 17.6643 17.3872 17.6631C17.6385 17.6629 17.8852 17.5966 18.1027 17.4708C18.3202 17.3451 18.5008 17.1644 18.6264 16.9468L20.2596 14.0816C20.4268 13.7943 20.489 13.4579 20.4354 13.1299C20.3818 12.8019 20.2159 12.5027 19.966 12.2836L18.6121 11.0444ZM17.3299 16.2305L14.873 15.3996C14.2978 15.8868 13.6405 16.2676 12.9318 16.5242L12.4232 19.0958H9.04217L8.53359 16.5529C7.83047 16.2889 7.17669 15.9088 6.59954 15.4282L4.13542 16.2305L2.44492 13.3653L4.3933 11.6461C4.26085 10.9046 4.26085 10.1455 4.3933 9.40404L2.44492 7.63475L4.13542 4.76949L6.59238 5.60042C7.16753 5.11325 7.82487 4.73243 8.53359 4.4758L9.04217 1.90424H12.4232L12.9318 4.44715C13.6349 4.71106 14.2887 5.09122 14.8658 5.57176L17.3299 4.76949L19.0204 7.63475L17.072 9.3539C17.2045 10.0954 17.2045 10.8545 17.072 11.596L19.0204 13.3653L17.3299 16.2305Z" fill="#5E646B" stroke="white" stroke-width="0.25"/>
<path d="M10.7327 14.7979C9.88266 14.7979 9.05171 14.5458 8.34492 14.0735C7.63814 13.6013 7.08727 12.93 6.76197 12.1447C6.43668 11.3594 6.35156 10.4952 6.5174 9.6615C6.68323 8.82779 7.09257 8.06198 7.69364 7.46091C8.29471 6.85984 9.06052 6.45051 9.89422 6.28467C10.7279 6.11884 11.5921 6.20395 12.3774 6.52925C13.1628 6.85454 13.834 7.40541 14.3063 8.1122C14.7785 8.81898 15.0306 9.64993 15.0306 10.5C15.0363 11.066 14.9291 11.6274 14.7151 12.1515C14.5012 12.6755 14.1848 13.1516 13.7846 13.5518C13.3843 13.9521 12.9082 14.2684 12.3842 14.4824C11.8602 14.6964 11.2987 14.8036 10.7327 14.7979V14.7979ZM10.7327 7.63472C10.354 7.62589 9.97748 7.69398 9.62586 7.83485C9.27424 7.97572 8.95486 8.18645 8.68701 8.45429C8.41917 8.72213 8.20844 9.04152 8.06757 9.39313C7.9267 9.74475 7.85862 10.1213 7.86744 10.5C7.85862 10.8787 7.9267 11.2552 8.06757 11.6068C8.20844 11.9584 8.41917 12.2778 8.68701 12.5457C8.95486 12.8135 9.27424 13.0242 9.62586 13.1651C9.97748 13.306 10.354 13.374 10.7327 13.3652C11.1114 13.374 11.4879 13.306 11.8395 13.1651C12.1911 13.0242 12.5105 12.8135 12.7784 12.5457C13.0462 12.2778 13.257 11.9584 13.3978 11.6068C13.5387 11.2552 13.6068 10.8787 13.598 10.5C13.6068 10.1213 13.5387 9.74475 13.3978 9.39313C13.257 9.04152 13.0462 8.72213 12.7784 8.45429C12.5105 8.18645 12.1911 7.97572 11.8395 7.83485C11.4879 7.69398 11.1114 7.62589 10.7327 7.63472Z" fill="#5E646B" stroke="white" stroke-width="0.25"/>
</svg>
